<?xml version="1.0" encoding="utf-8"?>
<!-- Generator: Adobe Illustrator 19.1.0, SVG Export Plug-In . SVG Version: 6.00 Build 0)  -->
<svg version="1.1" xmlns="http://www.w3.org/2000/svg" xmlns:xlink="http://www.w3.org/1999/xlink" x="0px" y="0px"
	 viewBox="0 0 512 512" style="enable-background:new 0 0 512 512;" xml:space="preserve">
<g id="Layer_4" style="display:none;">
</g>
<g id="Layer_5">
	<path style="fill:#8BC34A;" d="M178.8,255.4c-0.1-1-0.3-2-0.4-2.9c0.4,0.2,0.7,0.4,1.1,0.6c0.9-3,1.9-5.9,3-8.8c-1.7-1-3.5-2-5.2-3
		c-1.2-14.7-0.4-29.3,7-41.9l16.4,13.2c2.7-3.4,5.5-6.6,8.5-9.7l-16.9-13.7c13.6-12.9,34.4-15.3,52.7-11.9c2.8-1.3,5.7-2.6,8.7-3.7
		l-2.2-5.6c-22.3-4.5-44.6-5.6-63.9,8.3c-20.9,16.8-22,37.9-20.1,60c-18.6-8.5-38.6-12.7-59.9-6.3c-37.9,11.2-37.4,49.2-33.6,81.8
		l12,3.5c-1.5-16.2-3-34.7,2.5-49.5l75.1,40.4c-6.8,13.1-18.7,23.1-33.9,24.9c-24.4,2.9-43.3-4.8-65.3-13.9
		c-17.9-5.2-34.5-6-52.4-0.7l14.7,14.5c31.9-7.8,60.9,7.7,91.6,12.7c19.9,4.2,44.5,5.3,58-13.7c1.2-1.7,2.3-3.6,3.2-5.6
		c-3.4-11.3-5.3-23.3-5.3-35.7C174.2,277.1,175.8,265.9,178.8,255.4z M95,254.2c3.6-4.4,8.4-8.1,14.6-10.9c20.1-8.8,40.3-4.4,59,4.1
		c1.7,15.2,3.4,30.6,0,45.2c-0.1,0.4-0.2,0.8-0.3,1.2L95,254.2z"/>
	<path style="fill:#8BC34A;" d="M284.8,106.4l10.3-8.5c14.5-8.2,34-9.8,50.1-6.4l-5.3-11.4c-24.8-6.3-54.4-2.3-70.7,19.3
		c-12.7,19-10.7,47.6-3.7,70.3c3.8-1,7.7-1.9,11.7-2.5C270.1,146.1,268.8,124.2,284.8,106.4z"/>
	<path style="fill:#8BC34A;" d="M95.7,352.3c-1.9-4-7.7-4.7-12.5-6.4c0.4,7.7,0.6,15.5,0.6,23.3c0,2.4,0.6,20.5-3.9,17.1
		c3,2.2,11.1,10.4,13.9,9.1c2.8-1.3,1.8-17.1,1.9-19.6C95.9,369.7,98.3,357.6,95.7,352.3z"/>
	<path style="fill:#8BC34A;" d="M407.2,96.5c13.3-1.4,6.3-4.9,0.3-11.9c-1.1-1.2-26.4,0.3-31,0c1.2,4.3,2.4,8.7,3.6,13
		C389.1,97.5,398.2,97.5,407.2,96.5z"/>
	<path style="fill:#8BC34A;" d="M352.8,177.9c15.1-11.4,22.2-23.4,24-42.4c3.4-36.2-29.1-66.2-21-103.1l-15.1-14
		c-9.9,38.8,19.3,65.4,23,102.1c2.7,26.2-10.2,42.5-29,51c6,1.9,11.7,4.3,17.2,7C352.2,178.3,352.5,178.1,352.8,177.9z"/>
</g>
<g id="Layer_13">
	<path style="fill:#212121;" d="M417,366.8l82.8,82.8L500,472l-21.6,21.6l-22.6-0.1l-82.7-82.7c-4.8-4.8-4.8-12.5,0-17.3l26.6-26.6
		C404.5,362,412.2,362,417,366.8z"/>
	<path style="fill:#212121;" d="M297.2,176.9c-61.7,0-111.7,50-111.7,111.7s50,111.7,111.7,111.7s111.7-50,111.7-111.7
		S358.8,176.9,297.2,176.9z M297.2,384.9c-53.2,0-96.4-43.1-96.4-96.4s43.1-96.4,96.4-96.4s96.4,43.1,96.4,96.4
		S350.4,384.9,297.2,384.9z"/>
</g>
<g id="Layer_6">
	<path style="fill:#388E3C;" d="M271.8,251.2l-29.7-24c-3.1,2.7-5.9,5.7-8.6,8.8l29.6,23.8L271.8,251.2z"/>
	<path style="fill:#388E3C;" d="M293.1,319.4c5.1,0.3,9.6-0.6,14.6-1.5c-33.9-1.6-57.1-31.7-83.9-48.3c-2.4-1.7-4.8-3.3-7.2-4.9
		c-1,2.6-1.8,5.3-2.6,8.1c0.2,0.1,0.4,0.2,0.5,0.3c19.9,13.4,41.4,28.8,48,53l14.3,46.8c0.2-3.3-3.5-43.4-6-43.1
		c3.5-0.4,12.2,17.7,13.9,20.6c-1.1-3.5-9-21.2-6.9-23.8c2.4-2.9,16.1,4.2,19.6,5.6c-2-1.3-21.3-14.1-20.5-15.1
		C278.8,315.1,290.5,319.3,293.1,319.4z"/>
	<path style="fill:#388E3C;" d="M344.2,258.5c-13.6-7-20.7-19.4-27.9-32.6c-3.8-7-8-14.8-11.8-22.9c-4.1,0-8.1,0.3-12.1,0.9
		c6.3,13.7,12.6,27.5,21.2,39.9c10.4,15.1,16.5,34.9,29.2,48.1c-1.1-2.7-9.2-19.3-6.7-21.2c2.5-1.9,16.6,10.5,19.1,12.4
		c-1.3-1.6-10.5-12.5-9.1-13.5c1.2-0.9,4.2-0.1,7.5,1.2c-3.3-2-4.1-3.9,3.3-4.3c8.9-0.5,18.5,1.4,27.3,2.5
		C370.6,266.8,356.3,264.7,344.2,258.5z"/>
</g>
</svg>
